 http://img713.imageshack.us/img713/8738/summereleven2010.jpg

Country.......: USA
Genre.........: Drama
Date release..: 2010 [World]
Director......: Joseph Kell
Writers.......: Joseph Kell
Duration......: 93 min.
More..........: http://www.imdb.com/title/tt1276988
Trailer.......: http://www.imdb.com/video/screenplay/vi907647513
Trailer.......:

Pilot :
The poignant, coming of age story about a group of eleven year old girls in their final summer before middle school.

Cats :
Adam Arkin   	 ...  	Ron
Jamie Butterworth 	... 	Julie
Steven Grayhm 	... 	Gerry
Mark Humphrey 	... 	Dave
Eamon Hunt 	... 	Martin
Lisa Langlois 	... 	Jenine
Valerie Mahaffey 	... 	Linda
Deborah Theaker 	... 	Cheryl 

Data Technical :
!!! SAMPLE !!!
Audio.....: English
Subtitles.: None
Format                           : AVI
Format/Info                      : Audio Video Interleave
File size                        : 697 MiB
Duration                         : 1h 33mn
Overall bit rate                 : 1 045 Kbps
Writing application              : VirtualDubMod 1.5.10.2 (build 2540/release)
Writing library                  : VirtualDubMod build 2540/release
Video
ID                               : 0
Format                           : MPEG-4 Visual
Format profile                   : Advanced Simple@L5
Format settings, BVOP            : Yes
Format settings, QPel            : No
Format settings, GMC             : No warppoints
Format settings, Matrix          : Default (H.263)
Muxing mode                      : Packed bitstream
Codec ID                         : XVID
Codec ID/Hint                    : XviD
Duration                         : 1h 33mn
Bit rate                         : 908 Kbps
Width                            : 624 pixels
Height                           : 352 pixels
Display aspect ratio             : 16:9
Frame rate                       : 23.976 fps
Color space                      : YUV
Chroma subsampling               : 4:2:0
Bit depth                        : 8 bits
Scan type                        : Progressive
Bits/(Pixel*Frame)               : 0.172
Stream size                      : 605 MiB (87%)
Writing library                  : XviD 1.2.1 (UTC 2008-12-04)
Audio
ID                               : 1
Format                           : MPEG Audio
Format version                   : Version 1
Format profile                   : Layer 3
Mode                             : Joint stereo
Codec ID                         : 55
Codec ID/Hint                    : MP3
Duration                         : 1h 33mn
Bit rate mode                    : Variable
Bit rate                         : 124 Kbps
Channel(s)                       : 2 channels
Sampling rate                    : 48.0 KHz
Stream size                      : 82.8 MiB (12%)
Alignment                        : Aligned on interleaves
Interleave, duration             : 24 ms (0.58 video frame)
Interleave, preload duration     : 129 ms
Writing library                  : LAME3.90.0

Screen : 
http://img820.imageshack.us/img820/1664/summereleven2010s5.jpg 
http://img717.imageshack.us/img717/6083/summereleven2010s4.jpg 
http://img339.imageshack.us/img339/4906/summereleven2010s1.jpg 
http://img849.imageshack.us/img849/6296/summereleven2010s2.jpg 
http://img97.imageshack.us/img97/3305/summereleven2010s3.jpg